<?xml version="1.0" standalone="no"?>
<!DOCTYPE svg PUBLIC "-//W3C//DTD SVG 20010904//EN"
 "http://www.w3.org/TR/2001/REC-SVG-20010904/DTD/svg10.dtd">
<svg version="1.0" xmlns="http://www.w3.org/2000/svg"
 width="800.000000pt" height="450.000000pt" viewBox="0 0 800.000000 450.000000"
 preserveAspectRatio="xMidYMid meet">

<g transform="translate(0.000000,450.000000) scale(0.100000,-0.100000)"
fill="#000000" stroke="none">
<path d="M6430 4127 c-30 -12 -89 -43 -130 -69 -41 -25 -118 -72 -170 -104
-52 -31 -185 -112 -295 -179 -544 -331 -528 -319 -528 -401 0 -43 7 -63 19
-52 3 4 1 15 -5 26 -8 14 -8 28 -1 44 10 23 11 23 6 1 -2 -13 0 -26 5 -29 5
-3 9 4 9 14 0 26 27 49 41 35 15 -15 59 7 59 29 0 9 -6 21 -14 25 -12 7 -11
10 2 23 14 13 15 12 10 -2 -5 -13 2 -17 38 -20 30 -2 44 1 44 9 0 8 15 13 43
13 23 1 66 11 96 24 48 21 52 25 35 34 -17 10 -17 11 8 12 15 0 30 5 33 10 4
6 10 8 15 5 12 -7 90 25 90 37 0 6 7 8 14 5 10 -4 13 -1 9 9 -4 10 2 14 19 14
14 0 39 7 56 16 18 8 36 13 40 10 5 -3 18 3 28 12 10 10 27 21 37 25 11 4 15
12 11 19 -4 7 -4 10 1 6 4 -4 16 -3 26 2 10 6 37 11 59 12 28 1 44 7 48 17 10
28 36 40 85 41 40 0 54 5 79 30 16 17 40 30 52 30 12 0 27 5 34 12 8 8 15 8
27 -2 8 -7 15 -8 15 -2 0 5 17 17 39 25 21 9 41 23 44 31 4 10 19 16 37 16 17
0 41 6 53 12 32 18 107 36 127 31 12 -3 20 2 23 14 4 16 5 16 6 1 1 -21 21
-24 21 -4 0 13 4 13 28 1 15 -8 27 -20 27 -27 0 -6 7 -13 15 -15 12 -4 12 -3
1 5 -10 8 -11 10 0 14 7 2 -8 16 -34 31 -25 15 -52 24 -60 21 -8 -3 -18 -1
-22 5 -4 7 1 9 12 5 36 -12 -32 35 -106 73 -96 49 -178 55 -261 20z m338 -102
c2 -2 -7 -2 -21 -1 -13 0 -24 6 -24 13 0 9 6 9 21 1 12 -6 22 -12 24 -13z
m-1071 -391 c-3 -3 -12 -4 -19 -1 -8 3 -5 6 6 6 11 1 17 -2 13 -5z m-347 -204
c0 -5 -5 -10 -11 -10 -5 0 -7 5 -4 10 3 6 8 10 11 10 2 0 4 -4 4 -10z"/>
<path d="M6961 3937 c2 -1 13 -9 24 -17 19 -14 19 -14 6 3 -7 9 -18 17 -24 17
-6 0 -8 -1 -6 -3z"/>
<path d="M6426 3761 c-4 -5 3 -7 14 -4 23 6 26 13 6 13 -8 0 -17 -4 -20 -9z"/>
<path d="M6475 3760 c-3 -5 -2 -10 4 -10 5 0 13 5 16 10 3 6 2 10 -4 10 -5 0
-13 -4 -16 -10z"/>
<path d="M6528 3763 c6 -2 18 -2 25 0 6 3 1 5 -13 5 -14 0 -19 -2 -12 -5z"/>
<path d="M6435 3740 c-3 -6 1 -7 9 -4 18 7 21 14 7 14 -6 0 -13 -4 -16 -10z"/>
<path d="M6490 3729 c-44 -13 -90 -56 -90 -83 1 -19 2 -18 15 5 22 41 62 62
119 62 70 0 91 -9 115 -46 23 -36 27 -32 9 8 -21 47 -102 73 -168 54z"/>
<path d="M6358 3673 c5 -21 7 -23 10 -9 2 10 0 22 -6 28 -6 6 -7 0 -4 -19z"/>
<path d="M6487 3643 c-11 -10 -8 -25 3 -18 5 3 28 -6 50 -21 55 -37 60 -25 6
14 -48 35 -49 35 -59 25z"/>
<path d="M6361 3624 c0 -11 3 -14 6 -6 3 7 2 16 -1 19 -3 4 -6 -2 -5 -13z"/>
<path d="M6671 3589 c-16 -26 -107 -69 -147 -69 -40 0 -97 24 -122 50 l-19 21
-79 -56 c-92 -66 -114 -85 -114 -97 0 -5 28 13 63 39 34 27 77 59 96 71 l33
24 29 -28 c23 -22 40 -29 88 -32 70 -5 120 9 160 47 l30 28 78 -55 c43 -30 88
-64 101 -75 12 -11 22 -15 22 -9 0 10 -69 65 -176 139 -30 21 -30 21 -43 2z"/>
<path d="M6652 3451 c-10 -6 -7 -10 12 -13 16 -3 25 -1 23 5 -5 15 -20 18 -35
8z"/>
<path d="M6649 3389 c29 -23 55 -39 58 -35 4 3 4 7 2 9 -2 1 -25 17 -51 35
-65 45 -71 40 -9 -9z"/>
<path d="M6700 3415 c-7 -9 -8 -15 -2 -15 5 0 12 7 16 15 3 8 4 15 2 15 -2 0
-9 -7 -16 -15z"/>
<path d="M6160 3402 c0 -24 299 -239 345 -248 38 -7 92 8 121 34 11 9 72 53
137 96 64 44 125 88 134 100 10 11 -4 4 -32 -15 -262 -187 -288 -203 -335
-203 -42 -1 -55 6 -154 79 -60 44 -133 99 -162 123 -30 24 -54 39 -54 34z"/>
<path d="M6565 3390 c-4 -6 5 -10 20 -10 15 0 24 4 20 10 -3 6 -12 10 -20 10
-8 0 -17 -4 -20 -10z"/>
<path d="M5351 3374 c0 -11 3 -14 6 -6 3 7 2 16 -1 19 -3 4 -6 -2 -5 -13z"/>
<path d="M6524 3361 c8 -13 76 -52 76 -43 0 8 -62 52 -74 52 -4 0 -5 -4 -2 -9z"/>
<path d="M6620 3360 c-8 -5 -12 -12 -9 -15 4 -3 12 1 19 10 14 17 11 19 -10 5z"/>
<path d="M6505 3310 c3 -5 14 -10 23 -10 15 0 15 2 2 10 -20 13 -33 13 -25 0z"/>
<path d="M6480 3291 c5 -11 15 -23 21 -27 6 -3 3 5 -6 20 -20 30 -30 35 -15 7z"/>
<path d="M6615 3300 c3 -5 8 -10 11 -10 2 0 4 5 4 10 0 6 -5 10 -11 10 -5 0
-7 -4 -4 -10z"/>
<path d="M6551 3286 c-7 -8 -1 -11 20 -11 33 0 39 10 9 18 -10 3 -24 0 -29 -7z"/>
<path d="M785 3251 c-202 -44 -307 -101 -451 -245 -127 -126 -194 -240 -235
-398 -32 -118 -32 -299 0 -418 67 -255 237 -467 468 -584 28 -14 91 -38 140
-53 79 -24 104 -26 238 -27 122 0 163 4 220 21 77 22 166 58 205 82 23 14 24
14 12 -1 -10 -13 -10 -17 4 -22 48 -18 235 139 319 269 126 195 175 328 175
478 0 174 -55 377 -138 507 -49 77 -145 174 -222 224 -112 74 -275 155 -341
171 -88 20 -291 19 -394 -4z m454 -70 c136 -35 177 -53 266 -116 80 -56 142
-125 212 -232 53 -82 114 -222 112 -261 0 -9 -11 15 -24 54 -48 143 -155 288
-283 382 -168 124 -346 182 -559 182 -100 0 -131 -4 -198 -26 -199 -65 -331
-151 -437 -289 -109 -141 -154 -243 -179 -412 -13 -89 -2 -214 27 -300 9 -25
13 -47 11 -50 -8 -7 -36 85 -52 168 -27 142 17 352 104 498 137 232 372 394
626 434 85 14 252 -1 374 -32z m-115 -101 c263 -38 502 -246 586 -511 28 -87
29 -324 1 -421 -41 -143 -129 -272 -257 -373 -67 -54 -215 -135 -244 -135 -8
0 15 15 51 34 197 101 366 293 401 457 40 183 45 262 24 349 -59 244 -141 362
-323 466 -93 53 -209 92 -315 105 -216 27 -471 -67 -595 -219 -46 -56 -52 -59
-28 -13 43 84 282 231 430 264 38 9 200 7 269 -3z m37 -328 c78 -38 168 -123
198 -186 54 -117 54 -247 -1 -367 -30 -64 -46 -85 -99 -128 -61 -49 -150 -92
-187 -90 -9 0 6 8 34 18 63 21 139 69 179 112 21 22 12 18 -29 -16 -67 -53
-129 -83 -193 -92 -43 -6 -54 -16 -30 -27 6 -3 -26 -4 -73 -2 -75 3 -96 8
-163 42 -76 37 -154 101 -177 144 -8 15 -8 20 -1 16 16 -10 14 -1 -9 36 -11
18 -27 66 -36 106 -14 62 -14 83 -4 135 23 117 92 216 196 280 70 43 129 57
235 54 84 -2 103 -6 160 -35z m681 -231 c2 -17 1 -28 -4 -25 -8 5 -12 54 -4
54 2 0 6 -13 8 -29z m-1623 -466 c25 -58 60 -105 135 -184 34 -35 52 -59 40
-53 -26 14 -91 84 -130 142 -30 44 -74 124 -74 135 0 15 11 0 29 -40z"/>
<path d="M6515 3240 c3 -5 11 -10 16 -10 6 0 7 5 4 10 -3 6 -11 10 -16 10 -6
0 -7 -4 -4 -10z"/>
<path d="M5751 2957 c-31 -19 -32 -21 -15 -34 10 -7 13 -13 7 -13 -7 0 -15 5
-18 10 -3 6 -10 10 -14 10 -4 0 -65 -36 -135 -80 -71 -44 -131 -80 -133 -80
-6 0 -93 -61 -110 -77 -7 -6 -13 -22 -13 -35 1 -20 3 -19 15 10 8 18 22 35 32
39 10 3 26 15 37 25 10 11 25 17 33 14 9 -4 11 -2 7 6 -5 8 -2 9 10 5 10 -4
15 -3 11 3 -3 6 3 10 14 10 10 0 21 3 23 8 2 4 22 20 45 35 35 24 45 27 65 17
22 -11 22 -11 3 5 -17 14 -18 17 -5 25 19 12 33 13 26 1 -4 -5 4 -7 16 -3 12
3 17 7 10 10 -6 2 -12 8 -12 14 0 6 7 8 15 4 8 -3 14 0 12 6 -1 6 19 12 51 13
29 2 59 9 67 15 8 6 23 9 34 5 22 -7 38 10 20 21 -8 4 -9 3 -5 -4 4 -7 2 -12
-3 -12 -6 0 -11 7 -11 15 0 20 -6 19 -42 -6 -20 -14 -33 -18 -40 -11 -6 6 1
13 21 20 17 6 31 16 31 21 0 15 -10 13 -49 -12z"/>
<path d="M2704 2920 c-116 -30 -213 -93 -282 -183 -180 -232 -138 -557 94
-735 307 -234 755 -80 850 291 12 45 15 88 11 158 -4 86 -9 106 -46 184 -110
236 -368 353 -627 285z m261 -254 c65 -30 112 -78 143 -145 44 -96 19 -222
-60 -301 -81 -82 -218 -104 -323 -54 -96 45 -165 150 -165 250 0 107 84 223
187 260 62 22 160 17 218 -10z"/>
<path d="M3460 2415 l0 -525 204 0 203 0 67 112 c37 61 68 116 69 121 1 6 -59
10 -148 11 l-150 1 -3 403 -2 402 -120 0 -120 0 0 -525z"/>
<path d="M4567 2933 c-3 -4 -16 -28 -30 -53 -53 -95 -230 -406 -386 -678 -89
-156 -164 -289 -168 -297 -4 -13 16 -15 133 -15 l139 1 99 174 c55 96 127 222
161 280 l62 106 123 -218 c68 -120 139 -246 159 -280 l36 -63 139 0 c123 0
137 2 132 16 -4 9 -74 136 -158 283 -83 146 -209 370 -281 496 -133 236 -151
263 -160 248z"/>
<path d="M6212 2684 c-23 -14 -42 -29 -42 -35 0 -7 44 16 89 48 2 2 2 5 0 8
-3 2 -24 -7 -47 -21z"/>
<path d="M6853 2674 c21 -14 41 -24 43 -21 5 5 -62 47 -74 47 -4 0 11 -12 31
-26z"/>
<path d="M6307 2632 c46 -63 71 -92 77 -92 9 0 -87 129 -97 130 -4 0 5 -17 20
-38z"/>
<path d="M6780 2630 c33 -26 52 -25 21 0 -13 11 -28 20 -35 20 -6 0 0 -9 14
-20z"/>
<path d="M6140 2626 c0 -2 62 -44 138 -93 179 -117 222 -144 222 -139 0 5
-348 236 -355 236 -3 0 -5 -2 -5 -4z"/>
<path d="M6685 2620 c-16 -7 -12 -8 16 -8 20 1 41 -2 47 -6 7 -4 12 -2 12 3 0
6 -6 11 -14 11 -8 0 -20 2 -28 4 -7 3 -22 1 -33 -4z"/>
<path d="M6395 2599 c-11 -17 -2 -18 19 -3 17 12 17 14 4 14 -9 0 -20 -5 -23
-11z"/>
<path d="M6751 2549 c-14 -5 -39 -7 -55 -4 -30 5 -30 5 -6 -6 28 -11 90 -4 90
11 0 6 -1 10 -2 9 -2 0 -14 -5 -27 -10z"/>
<path d="M5320 2546 c0 -2 8 -10 18 -17 15 -13 16 -12 3 4 -13 16 -21 21 -21
13z"/>
<path d="M6834 2534 c-18 -14 -18 -15 4 -4 12 6 22 13 22 15 0 8 -5 6 -26 -11z"/>
<path d="M6727 2468 c-43 -28 -76 -53 -73 -55 5 -5 156 94 156 102 0 7 3 9
-83 -47z"/>
<path d="M6610 2390 c-29 -23 -52 -25 -83 -8 -20 10 -21 10 -8 -5 20 -25 66
-21 98 8 33 29 29 33 -7 5z"/>
<path d="M5690 2207 c-36 -23 -117 -73 -180 -111 -176 -105 -210 -136 -188
-167 8 -11 9 -11 5 3 -3 9 2 22 10 30 15 11 16 11 10 -5 -4 -11 -3 -16 4 -12
5 4 7 16 3 27 -5 16 -3 20 9 15 9 -3 21 1 27 9 7 8 9 14 4 14 -5 1 5 8 21 17
17 10 36 16 44 14 7 -1 10 2 6 8 -8 14 -4 14 32 1 25 -9 26 -8 11 4 -10 7 -18
16 -18 19 0 4 8 4 18 0 9 -3 14 -3 10 2 -11 12 58 46 79 39 14 -4 15 -4 4 4
-16 12 3 27 21 16 7 -5 8 -3 3 6 -6 10 -3 12 14 7 17 -4 21 -2 17 9 -5 13 15
29 84 69 13 8 13 7 1 -8 -8 -10 -9 -17 -3 -17 6 0 14 5 17 10 4 6 16 2 32 -10
14 -11 29 -18 32 -14 7 7 -40 43 -57 44 -7 0 -10 5 -7 10 10 15 5 13 -65 -33z"/>
<path d="M5857 2169 c12 -12 24 -21 27 -18 2 2 -8 13 -22 23 l-27 19 22 -24z"/>
<path d="M6938 1983 c6 -2 18 -2 25 0 6 3 1 5 -13 5 -14 0 -19 -2 -12 -5z"/>
<path d="M6980 1950 c-9 -6 -10 -10 -3 -10 6 0 15 5 18 10 8 12 4 12 -15 0z"/>
<path d="M6245 1932 c-5 -4 -17 -16 -25 -27 -11 -15 -7 -14 15 5 17 14 32 26
34 28 2 1 0 2 -5 2 -5 0 -13 -4 -19 -8z"/>
<path d="M6908 1933 c7 -3 16 -2 19 1 4 3 -2 6 -13 5 -11 0 -14 -3 -6 -6z"/>
<path d="M6796 1895 c10 -8 23 -15 28 -15 6 0 1 7 -10 15 -10 8 -23 15 -28 15
-6 0 -1 -7 10 -15z"/>
<path d="M6850 1900 c-9 -6 -10 -10 -3 -10 6 0 15 5 18 10 8 12 4 12 -15 0z"/>
<path d="M6587 1809 c-26 -18 -46 -34 -43 -36 3 -3 25 9 51 27 l46 31 33 -20
c18 -12 37 -21 42 -21 9 1 -67 50 -76 50 -3 0 -27 -14 -53 -31z"/>
<path d="M6205 1766 c62 -55 200 -70 277 -30 15 8 35 11 45 7 14 -5 15 -3 6 7
-9 10 -21 9 -60 -6 -89 -35 -189 -23 -273 32 -18 12 -17 9 5 -10z"/>
<path d="M6750 1781 c0 -5 9 -7 20 -4 11 3 20 7 20 9 0 2 -9 4 -20 4 -11 0
-20 -4 -20 -9z"/>
<path d="M6564 1721 c20 -22 26 -25 26 -13 0 4 -10 13 -22 21 -23 14 -23 14
-4 -8z"/>
<path d="M6748 1733 c6 -2 18 -2 25 0 6 3 1 5 -13 5 -14 0 -19 -2 -12 -5z"/>
<path d="M6585 1664 l-30 -26 35 23 c45 29 45 29 34 29 -5 0 -22 -12 -39 -26z"/>
<path d="M6489 1639 c-10 -6 -7 -9 14 -9 29 0 35 5 14 13 -8 3 -20 1 -28 -4z"/>
<path d="M5651 1450 c-62 -39 -115 -70 -118 -70 -2 0 -37 -22 -79 -50 -41 -27
-79 -50 -84 -50 -5 0 -21 -16 -36 -36 -35 -45 -37 -107 -6 -155 12 -19 22 -29
22 -24 -1 6 -7 19 -15 29 -8 11 -14 38 -13 60 1 41 1 41 5 6 3 -19 8 -39 12
-43 4 -4 6 6 3 23 -2 17 0 30 6 30 7 0 8 11 2 33 -9 29 -8 30 5 13 13 -17 17
-17 32 -5 14 12 15 12 9 0 -6 -9 -4 -12 5 -9 8 3 13 17 13 31 -1 17 4 27 13
27 10 0 12 -7 8 -22 -3 -13 -3 -18 2 -12 14 19 50 34 82 34 38 0 81 19 81 37
0 7 6 13 13 14 6 0 21 2 32 5 11 2 40 8 65 13 25 5 37 9 28 10 -10 1 -18 5
-18 10 0 5 -10 7 -22 4 -13 -3 -20 -2 -15 2 4 5 35 10 70 11 76 4 87 6 87 13
0 3 14 12 31 20 25 11 35 11 55 1 13 -8 27 -11 30 -8 5 6 -153 114 -179 123
-7 2 -63 -27 -126 -65z m26 -44 c0 -8 -6 -12 -15 -9 -11 5 -11 7 0 14 7 5 13
9 14 9 0 0 1 -6 1 -14z m-80 -78 c-3 -8 -6 -5 -6 6 -1 11 2 17 5 13 3 -3 4
-12 1 -19z m-102 -16 c-3 -3 -11 0 -18 7 -9 10 -8 11 6 5 10 -3 15 -9 12 -12z
m-55 -26 c0 -3 -4 -8 -10 -11 -5 -3 -10 -1 -10 4 0 6 5 11 10 11 6 0 10 -2 10
-4z m-65 -54 c-3 -3 -11 0 -18 7 -9 10 -8 11 6 5 10 -3 15 -9 12 -12z"/>
<path d="M6275 1200 c-3 -5 -1 -10 4 -10 6 0 11 5 11 10 0 6 -2 10 -4 10 -3 0
-8 -4 -11 -10z"/>
<path d="M6784 1181 c21 -23 26 -26 26 -11 0 5 -10 15 -22 21 -23 12 -23 12
-4 -10z"/>
<path d="M6240 1161 c0 -11 39 -45 45 -39 3 2 -6 14 -20 26 -14 12 -25 18 -25
13z"/>
<path d="M5351 1144 c0 -11 3 -14 6 -6 3 7 2 16 -1 19 -3 4 -6 -2 -5 -13z"/>
<path d="M6630 1105 c-36 -25 -71 -45 -78 -45 -7 0 -32 13 -55 29 -48 32 -97
58 -82 43 6 -5 38 -28 73 -50 l63 -41 47 29 c47 30 111 79 102 79 -3 0 -34
-20 -70 -44z"/>
<path d="M6810 1109 c0 -5 5 -7 10 -4 6 3 10 8 10 11 0 2 -4 4 -10 4 -5 0 -10
-5 -10 -11z"/>
<path d="M6279 1091 c-13 -10 -31 -21 -39 -24 -12 -4 -12 -6 -1 -6 7 -1 28 8
46 19 29 18 34 18 45 5 7 -8 20 -15 29 -15 9 0 3 8 -17 20 -39 24 -34 24 -63
1z"/>
<path d="M6758 1076 c-10 -7 -18 -17 -18 -21 0 -5 9 0 19 9 16 15 23 16 43 5
21 -11 22 -11 9 4 -16 20 -30 21 -53 3z"/>
<path d="M6357 1034 c-49 -33 -47 -41 2 -14 37 21 39 21 65 5 35 -23 33 -12
-2 14 l-29 20 -36 -25z"/>
<path d="M6684 1024 c-18 -14 -18 -15 4 -4 12 6 27 8 32 5 6 -3 10 -1 10 4 0
16 -23 13 -46 -5z"/>
<path d="M6433 977 c-18 -12 -33 -25 -33 -29 0 -4 16 3 35 17 34 22 38 23 70
9 41 -17 76 -18 109 -3 20 10 31 8 62 -12 21 -12 34 -17 30 -11 -4 7 -21 19
-37 28 -25 12 -35 13 -65 2 -33 -11 -65 -8 -124 15 -8 3 -30 -4 -47 -16z"/>
</g>
</svg>
